<mxfile host="app.diagrams.net" agent="Mozilla/5.0 (Windows NT 10.0; Win64; x64) AppleWebKit/537.36 (KHTML, like Gecko) Chrome/139.0.0.0 Safari/537.36" version="28.0.9">
  <diagram name="Page-1" id="NI40CLLSZNW4z02VwtIy">
    <mxGraphModel dx="1042" dy="596" grid="1" gridSize="10" guides="1" tooltips="1" connect="1" arrows="1" fold="1" page="1" pageScale="1" pageWidth="850" pageHeight="1100" math="0" shadow="0">
      <root>
        <mxCell id="0" />
        <mxCell id="1" parent="0" />
        <mxCell id="wue9trILlq8xM21aHsn4-83" value="" style="edgeStyle=orthogonalEdgeStyle;rounded=0;orthogonalLoop=1;jettySize=auto;html=1;" parent="1" source="wue9trILlq8xM21aHsn4-74" target="wue9trILlq8xM21aHsn4-75" edge="1">
          <mxGeometry relative="1" as="geometry" />
        </mxCell>
        <mxCell id="wue9trILlq8xM21aHsn4-74" value="START" style="ellipse;whiteSpace=wrap;html=1;" parent="1" vertex="1">
          <mxGeometry x="340" y="10" width="210" height="80" as="geometry" />
        </mxCell>
        <mxCell id="wue9trILlq8xM21aHsn4-85" value="" style="edgeStyle=orthogonalEdgeStyle;rounded=0;orthogonalLoop=1;jettySize=auto;html=1;" parent="1" source="wue9trILlq8xM21aHsn4-75" target="wue9trILlq8xM21aHsn4-76" edge="1">
          <mxGeometry relative="1" as="geometry" />
        </mxCell>
        <mxCell id="wdSPKz4n2yLLeoNI2l1o-4" value="" style="edgeStyle=orthogonalEdgeStyle;rounded=0;orthogonalLoop=1;jettySize=auto;html=1;" edge="1" parent="1" source="wue9trILlq8xM21aHsn4-75">
          <mxGeometry relative="1" as="geometry">
            <mxPoint x="682.5" y="235" as="targetPoint" />
          </mxGeometry>
        </mxCell>
        <mxCell id="wue9trILlq8xM21aHsn4-75" value="New user?" style="rhombus;whiteSpace=wrap;html=1;" parent="1" vertex="1">
          <mxGeometry x="346.25" y="170" width="197.5" height="130" as="geometry" />
        </mxCell>
        <mxCell id="wue9trILlq8xM21aHsn4-86" value="" style="edgeStyle=orthogonalEdgeStyle;rounded=0;orthogonalLoop=1;jettySize=auto;html=1;" parent="1" source="wue9trILlq8xM21aHsn4-76" target="wue9trILlq8xM21aHsn4-77" edge="1">
          <mxGeometry relative="1" as="geometry" />
        </mxCell>
        <mxCell id="wue9trILlq8xM21aHsn4-76" value="Recognize the face" style="shape=parallelogram;perimeter=parallelogramPerimeter;whiteSpace=wrap;html=1;fixedSize=1;" parent="1" vertex="1">
          <mxGeometry x="310" y="390" width="270" height="90" as="geometry" />
        </mxCell>
        <mxCell id="wue9trILlq8xM21aHsn4-87" value="" style="edgeStyle=orthogonalEdgeStyle;rounded=0;orthogonalLoop=1;jettySize=auto;html=1;" parent="1" source="wue9trILlq8xM21aHsn4-77" target="wue9trILlq8xM21aHsn4-78" edge="1">
          <mxGeometry relative="1" as="geometry" />
        </mxCell>
        <mxCell id="wue9trILlq8xM21aHsn4-77" value="face recognized" style="rhombus;whiteSpace=wrap;html=1;" parent="1" vertex="1">
          <mxGeometry x="346.25" y="550" width="197.5" height="130" as="geometry" />
        </mxCell>
        <mxCell id="wue9trILlq8xM21aHsn4-88" value="" style="edgeStyle=orthogonalEdgeStyle;rounded=0;orthogonalLoop=1;jettySize=auto;html=1;" parent="1" source="wue9trILlq8xM21aHsn4-78" target="wue9trILlq8xM21aHsn4-79" edge="1">
          <mxGeometry relative="1" as="geometry" />
        </mxCell>
        <mxCell id="wue9trILlq8xM21aHsn4-78" value="Stored in CSV file&lt;div&gt;with Registration&amp;nbsp;&lt;/div&gt;&lt;div&gt;Number &amp;amp; date&lt;/div&gt;&lt;div&gt;time of entry&lt;/div&gt;" style="shape=parallelogram;perimeter=parallelogramPerimeter;whiteSpace=wrap;html=1;fixedSize=1;" parent="1" vertex="1">
          <mxGeometry x="310" y="760" width="270" height="90" as="geometry" />
        </mxCell>
        <mxCell id="wue9trILlq8xM21aHsn4-79" value="END" style="ellipse;whiteSpace=wrap;html=1;" parent="1" vertex="1">
          <mxGeometry x="340" y="930" width="210" height="80" as="geometry" />
        </mxCell>
        <mxCell id="wue9trILlq8xM21aHsn4-81" value="Give your photograph" style="rounded=0;whiteSpace=wrap;html=1;" parent="1" vertex="1">
          <mxGeometry x="670" y="205" width="160" height="60" as="geometry" />
        </mxCell>
        <mxCell id="wue9trILlq8xM21aHsn4-89" value="" style="edgeStyle=orthogonalEdgeStyle;rounded=0;orthogonalLoop=1;jettySize=auto;html=1;" parent="1" source="wue9trILlq8xM21aHsn4-82" target="wue9trILlq8xM21aHsn4-76" edge="1">
          <mxGeometry relative="1" as="geometry" />
        </mxCell>
        <mxCell id="wue9trILlq8xM21aHsn4-82" value="Store the face&amp;nbsp;&lt;div&gt;data in folder&lt;div&gt;on your name&lt;/div&gt;&lt;/div&gt;" style="rounded=0;whiteSpace=wrap;html=1;" parent="1" vertex="1">
          <mxGeometry x="670" y="405" width="160" height="60" as="geometry" />
        </mxCell>
        <mxCell id="wdSPKz4n2yLLeoNI2l1o-1" value="no" style="text;html=1;align=center;verticalAlign=middle;resizable=0;points=[];autosize=1;strokeColor=none;fillColor=none;" vertex="1" parent="1">
          <mxGeometry x="405" y="320" width="40" height="30" as="geometry" />
        </mxCell>
        <mxCell id="wdSPKz4n2yLLeoNI2l1o-2" value="yes" style="text;html=1;align=center;verticalAlign=middle;resizable=0;points=[];autosize=1;strokeColor=none;fillColor=none;" vertex="1" parent="1">
          <mxGeometry x="400" y="708" width="40" height="30" as="geometry" />
        </mxCell>
        <mxCell id="wdSPKz4n2yLLeoNI2l1o-6" value="yes" style="text;html=1;align=center;verticalAlign=middle;resizable=0;points=[];autosize=1;strokeColor=none;fillColor=none;" vertex="1" parent="1">
          <mxGeometry x="590" y="208" width="40" height="30" as="geometry" />
        </mxCell>
        <mxCell id="wdSPKz4n2yLLeoNI2l1o-7" value="" style="endArrow=none;html=1;rounded=0;exitX=1;exitY=0.5;exitDx=0;exitDy=0;" edge="1" parent="1" source="wue9trILlq8xM21aHsn4-77">
          <mxGeometry width="50" height="50" relative="1" as="geometry">
            <mxPoint x="570" y="630" as="sourcePoint" />
            <mxPoint x="940" y="615" as="targetPoint" />
          </mxGeometry>
        </mxCell>
        <mxCell id="wdSPKz4n2yLLeoNI2l1o-17" value="no" style="edgeLabel;html=1;align=center;verticalAlign=middle;resizable=0;points=[];" vertex="1" connectable="0" parent="wdSPKz4n2yLLeoNI2l1o-7">
          <mxGeometry x="-0.0721" y="4" relative="1" as="geometry">
            <mxPoint as="offset" />
          </mxGeometry>
        </mxCell>
        <mxCell id="wdSPKz4n2yLLeoNI2l1o-12" value="" style="endArrow=none;html=1;rounded=0;" edge="1" parent="1">
          <mxGeometry width="50" height="50" relative="1" as="geometry">
            <mxPoint x="940" y="620" as="sourcePoint" />
            <mxPoint x="940" y="150" as="targetPoint" />
          </mxGeometry>
        </mxCell>
        <mxCell id="wdSPKz4n2yLLeoNI2l1o-13" value="" style="endArrow=none;html=1;rounded=0;" edge="1" parent="1">
          <mxGeometry width="50" height="50" relative="1" as="geometry">
            <mxPoint x="770" y="150" as="sourcePoint" />
            <mxPoint x="940" y="150" as="targetPoint" />
          </mxGeometry>
        </mxCell>
        <mxCell id="wdSPKz4n2yLLeoNI2l1o-14" value="" style="endArrow=classic;html=1;rounded=0;" edge="1" parent="1">
          <mxGeometry width="50" height="50" relative="1" as="geometry">
            <mxPoint x="770" y="150" as="sourcePoint" />
            <mxPoint x="770" y="200" as="targetPoint" />
          </mxGeometry>
        </mxCell>
        <mxCell id="wdSPKz4n2yLLeoNI2l1o-16" value="" style="endArrow=none;html=1;rounded=0;entryX=0.5;entryY=1;entryDx=0;entryDy=0;exitX=0.5;exitY=0;exitDx=0;exitDy=0;" edge="1" parent="1" source="wue9trILlq8xM21aHsn4-82" target="wue9trILlq8xM21aHsn4-81">
          <mxGeometry width="50" height="50" relative="1" as="geometry">
            <mxPoint x="750" y="400" as="sourcePoint" />
            <mxPoint x="750" y="270" as="targetPoint" />
          </mxGeometry>
        </mxCell>
      </root>
    </mxGraphModel>
  </diagram>
</mxfile>
